<?xml version="1.0" encoding="utf-8"?>
<!-- Generator: Adobe Illustrator 16.0.0, SVG Export Plug-In . SVG Version: 6.00 Build 0)  -->
<!DOCTYPE svg PUBLIC "-//W3C//DTD SVG 1.1//EN" "http://www.w3.org/Graphics/SVG/1.1/DTD/svg11.dtd">
<svg version="1.1" id="Layer_1" xmlns="http://www.w3.org/2000/svg" xmlns:xlink="http://www.w3.org/1999/xlink" x="0px" y="0px"
	 width="792px" height="170.806px" viewBox="0 0 792 170.806" style="enable-background:new 0 0 792 170.806;" xml:space="preserve"
	>
<style type="text/css">
<![CDATA[
	.st0{fill:#FFFFFF;}
]]>
</style>
<g>
	<path class="st0" d="M98.649,36.534c0,7.522-1.413,14.781-4.231,21.783c-2.822,6.995-6.78,13.085-11.877,18.267
		c-5.221,5.309-11.363,9.508-18.423,12.597c-7.063,3.092-15.064,4.635-24.006,4.635c-11.698,0-21.307-3.372-28.83-10.117
		C3.763,76.948,0,68.121,0,57.22c0-7.939,1.526-15.409,4.577-22.404c3.05-7.001,7.271-13.111,12.659-18.332
		c5.267-5.14,11.441-9.169,18.521-12.096C42.839,1.461,50.306,0,58.161,0c11.783,0,21.477,3.301,29.08,9.902
		C94.844,16.506,98.649,25.382,98.649,36.534 M65.872,69.374c2.838-5.761,4.948-12.037,6.328-18.827
		c1.38-6.793,2.07-13.485,2.07-20.09c0-7.646-1.465-13.661-4.391-18.049C66.956,8.023,62.591,5.83,56.784,5.83
		c-5.101,0-9.661,1.709-13.697,5.14c-4.03,3.424-7.424,7.874-10.182,13.346c-2.757,5.472-4.866,11.66-6.328,18.554
		c-1.465,6.891-2.194,13.746-2.194,20.555c0,7.396,1.458,13.339,4.384,17.828c2.923,4.492,7.314,6.741,13.16,6.741
		c5.058,0,9.645-1.754,13.759-5.263C59.801,79.214,63.196,74.764,65.872,69.374"/>
	<path class="st0" d="M204.952,2.441l-1.068,4.576c-1.171,0.124-2.871,0.349-5.107,0.658c-2.236,0.312-4.42,1.139-6.549,2.477
		c-1.797,1.126-3.333,3.069-4.606,5.83c-1.273,2.757-2.542,6.79-3.795,12.092l-14.739,63.802h-10.549l-38.354-71.233L110.02,65.117
		c-0.547,2.34-0.964,4.531-1.257,6.578c-0.293,2.051-0.436,3.678-0.436,4.889c0,1.715,0.166,3.037,0.498,3.978
		c0.335,0.944,0.814,1.725,1.442,2.354c0.963,0.963,2.643,1.796,5.045,2.506c2.399,0.709,4.186,1.168,5.358,1.38l-1.064,4.577
		H81.362l1.064-4.577c1.126-0.166,2.913-0.459,5.361-0.879c2.444-0.417,4.544-1.172,6.295-2.259
		c1.839-1.166,3.388-3.079,4.642-5.732c1.253-2.65,2.487-6.692,3.698-12.125l9.677-41.869c0.208-0.96,0.384-1.865,0.534-2.721
		c0.146-0.859,0.218-1.641,0.218-2.35c0-1.253-0.149-2.458-0.439-3.604c-0.293-1.149-0.836-2.204-1.634-3.167
		c-1.172-1.419-2.617-2.516-4.333-3.291c-1.719-0.771-3.73-1.37-6.032-1.787l1.13-4.576h32.856l33.546,62.705l8.339-36.44
		c0.583-2.679,1.012-4.856,1.283-6.552c0.273-1.693,0.41-3.268,0.41-4.733c0-1.627-0.176-2.956-0.534-3.978
		c-0.352-1.025-0.862-1.872-1.533-2.539c-0.915-0.918-2.533-1.741-4.844-2.474c-2.317-0.736-4.101-1.201-5.351-1.413l1.064-4.576
		H204.952z"/>
	<path class="st0" d="M285.471,2.441l-5.205,22.69h-4.697c-0.586-3.958-1.999-7.591-4.238-10.897
		c-2.239-3.307-4.593-5.231-7.06-5.774c-1.172-0.293-2.868-0.472-5.084-0.531c-2.22-0.062-4.062-0.098-5.523-0.098h-12.304
		l-8.027,34.721h8.544c3.138,0,5.595-0.342,7.376-1.032c1.78-0.69,3.444-1.66,4.993-2.914c1.175-0.96,2.542-2.685,4.114-5.172
		c1.569-2.484,2.688-4.609,3.359-6.36h4.7l-8.587,37.101h-4.7v-2.321c0-1.878-0.199-3.809-0.596-5.794
		c-0.4-1.989-0.873-3.375-1.413-4.167c-1.09-1.592-2.536-2.643-4.336-3.167c-1.803-0.524-3.851-0.785-6.155-0.785h-8.544
		l-5.723,24.751c-0.293,1.256-0.563,2.614-0.813,4.078c-0.251,1.462-0.375,2.51-0.375,3.131c0,2.679,0.875,4.358,2.633,5.049
		c1.751,0.69,4.993,1.032,9.713,1.032c6.016,0,10.406-0.26,13.16-0.785c2.757-0.518,4.827-1.321,6.207-2.412
		c2.507-2.086,5.514-5.283,9.023-9.586c3.509-4.307,5.895-7.483,7.148-9.531h4.577l-8.088,27.707h-82.788l1.067-4.577
		c1.042-0.042,2.601-0.179,4.665-0.407c2.07-0.234,3.606-0.514,4.609-0.846c1.627-0.544,2.871-1.38,3.727-2.506
		c0.859-1.13,1.455-2.428,1.787-3.887l14.375-62.174c0.208-0.873,0.351-1.605,0.439-2.194c0.085-0.583,0.124-1.022,0.124-1.312
		c0-1.757-0.889-3.125-2.663-4.108c-1.777-0.983-4.671-1.761-8.681-2.35l1.067-4.576H285.471z"/>
	<path class="st0" d="M384.14,36.726c0,8.483-1.654,16.178-4.951,23.091c-3.3,6.92-7.623,12.649-12.974,17.203
		c-5.557,4.723-11.748,8.297-18.583,10.719c-6.829,2.425-13.983,3.636-21.464,3.636h-38.793l0.938-4.134
		c1.087,0,2.624-0.104,4.609-0.316c1.986-0.208,3.395-0.478,4.232-0.817c1.503-0.583,2.64-1.409,3.414-2.47
		c0.771-1.068,1.306-2.331,1.599-3.795l14.794-63.984c0.124-0.504,0.234-1.058,0.342-1.663c0.104-0.609,0.156-1.097,0.156-1.475
		c0-0.918-0.156-1.722-0.469-2.409c-0.312-0.69-0.954-1.266-1.911-1.729c-1.091-0.498-2.425-0.924-4.014-1.283
		c-1.588-0.358-2.799-0.592-3.632-0.719l0.94-4.14h37.664c3.76,0,7.854,0.537,12.281,1.601c4.43,1.064,8.567,2.891,12.412,5.481
		c4.052,2.718,7.297,6.344,9.745,10.875C382.919,24.934,384.14,30.373,384.14,36.726 M369.411,36.808
		c0-9.361-2.51-16.636-7.526-21.825c-5.019-5.186-11.688-7.776-20.012-7.776c-1.715,0-3.489,0.033-5.328,0.094
		c-1.846,0.062-3.288,0.117-4.333,0.156l-15.897,69.052c-0.127,0.589-0.231,1.156-0.312,1.699c-0.085,0.547-0.127,1.061-0.127,1.566
		c0,2.513,1.045,4.28,3.134,5.299c2.09,1.025,5.518,1.537,10.279,1.537c6.227,0,11.904-1.416,17.024-4.264
		c5.117-2.838,9.368-6.624,12.756-11.35c3.467-4.896,6.058-10.228,7.773-15.995C368.555,49.232,369.411,43.165,369.411,36.808"/>
	<path class="st0" d="M459.487,2.441l-4.951,21.438h-4.703c-0.251-4.427-1.179-8.151-2.787-11.155
		c-1.611-3.007-3.772-4.72-6.49-5.14c-1.253-0.169-2.776-0.296-4.573-0.374c-1.8-0.088-3.821-0.127-6.077-0.127h-14.296
		l-8.268,35.786h10.048c3.103,0,5.508-0.306,7.223-0.912c1.719-0.602,3.249-1.618,4.59-3.04c1.257-1.253,2.468-2.972,3.643-5.166
		c1.172-2.197,2.008-4.042,2.513-5.546h4.7l-8.023,34.718h-4.7c0-0.458,0.032-1.012,0.095-1.663
		c0.062-0.648,0.094-1.348,0.094-2.096c0-1.546-0.104-3.034-0.312-4.45c-0.205-1.419-0.498-2.467-0.875-3.138
		c-0.876-1.625-2.123-2.692-3.743-3.196c-1.625-0.498-3.744-0.749-6.367-0.749h-9.986l-6.289,27.212
		c-0.25,1.012-0.462,2.109-0.628,3.278c-0.166,1.178-0.251,2.1-0.251,2.767c0,2.311,0.824,3.841,2.478,4.593
		c1.653,0.755,5.303,1.132,10.95,1.132c7.03,0,11.799-0.25,14.309-0.755s4.375-1.24,5.589-2.2c2.383-1.927,5.176-5.01,8.375-9.238
		c3.2-4.235,5.342-7.314,6.432-9.244h4.512L444,91.378h-73.883l0.941-4.141c1.292-0.084,3.004-0.26,5.136-0.534
		c2.132-0.27,3.571-0.553,4.326-0.846c1.458-0.543,2.578-1.357,3.353-2.441c0.774-1.084,1.302-2.36,1.595-3.825l14.925-64.553
		c0.081-0.329,0.156-0.709,0.218-1.126c0.062-0.42,0.095-0.817,0.095-1.188c0-0.839-0.18-1.591-0.534-2.259
		c-0.354-0.67-0.993-1.233-1.911-1.692c-1.002-0.544-2.425-1.019-4.26-1.439c-1.839-0.417-3.285-0.667-4.326-0.755l0.941-4.137
		H459.487z"/>
	<path class="st0" d="M494.943,93.503c-5.013,0-9.674-0.791-13.977-2.386c-4.303-1.585-8.062-3.932-11.278-7.024
		c-3.22-3.099-5.735-6.862-7.552-11.298s-2.728-9.514-2.728-15.247c0-8.079,1.409-15.578,4.231-22.499
		c2.818-6.923,6.676-12.984,11.562-18.166c4.805-5.146,10.484-9.195,17.047-12.148c6.559-2.949,13.476-4.423,20.744-4.423
		c5.768,0,10.705,0.664,14.823,1.995c4.114,1.328,7.343,2.796,9.68,4.401l3.513-4.264h5.013l-6.582,31.085h-5.14
		c-0.081-3.476-0.374-6.891-0.875-10.237c-0.505-3.35-1.547-6.367-3.132-9.046c-1.631-2.724-3.867-4.879-6.708-6.471
		c-2.842-1.588-6.81-2.389-11.907-2.389c-5.14,0-9.996,1.331-14.569,3.984c-4.577,2.659-8.597,6.39-12.066,11.194
		c-3.385,4.645-6.048,10.228-7.991,16.75s-2.913,13.502-2.913,20.949c0,9.28,2.19,16.594,6.578,21.949
		c4.382,5.351,10.439,8.03,18.163,8.03c3.675,0,6.871-0.543,9.583-1.631c2.715-1.087,4.863-2.301,6.454-3.632
		c0.586-1.719,1.137-3.525,1.664-5.423c0.521-1.901,1.097-4.235,1.722-6.992l1.191-5.387c0.081-0.462,0.179-1.006,0.283-1.627
		c0.104-0.631,0.156-1.214,0.156-1.758c0-1.042-0.137-1.901-0.407-2.568c-0.27-0.667-0.931-1.23-1.969-1.696
		c-1.211-0.622-2.979-1.09-5.29-1.409c-2.317-0.312-4.101-0.508-5.354-0.596l0.941-4.261h39.043l-0.94,4.261
		c-1.084,0.13-2.496,0.326-4.229,0.596c-1.734,0.273-3.187,0.661-4.354,1.166c-1.504,0.67-2.62,1.569-3.356,2.698
		c-0.729,1.129-1.282,2.471-1.66,4.017l-1.627,7.216c-0.96,3.981-1.631,6.95-2.005,8.916c-0.375,1.969-0.71,3.834-1.003,5.585
		c-2.761,1.136-5.211,2.119-7.366,2.956c-2.148,0.836-4.834,1.654-8.053,2.445c-2.923,0.758-5.732,1.341-8.431,1.761
		C501.181,93.295,498.205,93.503,494.943,93.503"/>
	<path class="st0" d="M622.445,87.237l-1.002,4.137h-22.489c-3.561-8.44-6.923-15.66-10.087-21.655
		c-3.164-5.993-6.507-12.269-10.022-18.827h-9.273l-6.634,28.693c-0.085,0.338-0.159,0.736-0.218,1.201
		c-0.065,0.456-0.098,0.794-0.098,0.999c0,0.964,0.179,1.8,0.533,2.506c0.358,0.71,0.993,1.273,1.914,1.693
		c0.583,0.25,1.826,0.514,3.73,0.784c1.897,0.273,3.479,0.427,4.732,0.469l-1.005,4.137h-37.639l1.006-4.137
		c1.045-0.081,2.529-0.228,4.45-0.439c1.924-0.205,3.297-0.478,4.137-0.813c1.501-0.586,2.653-1.429,3.444-2.539
		c0.794-1.106,1.338-2.389,1.631-3.854l15.009-64.924c0.084-0.42,0.156-0.846,0.221-1.289c0.059-0.439,0.092-0.866,0.092-1.286
		c0-0.872-0.166-1.65-0.502-2.314c-0.335-0.667-0.96-1.191-1.881-1.569c-0.876-0.332-2.148-0.67-3.821-1.002
		c-1.67-0.332-3.05-0.543-4.138-0.625l0.941-4.137h40.004c3.597,0,6.874,0.352,9.846,1.064c2.966,0.713,5.456,1.696,7.461,2.949
		c2.214,1.331,3.961,3.089,5.234,5.263c1.275,2.168,1.914,4.743,1.914,7.705c0,3.929-0.729,7.509-2.194,10.748
		c-1.462,3.242-3.45,6.009-5.957,8.304c-2.636,2.383-5.621,4.358-8.967,5.927c-3.347,1.562-7.024,2.806-11.038,3.727
		c3.265,6.308,5.918,11.301,7.962,14.979c2.051,3.675,4.456,8.209,7.213,13.596c1.423,2.715,2.698,4.671,3.824,5.862
		c1.13,1.188,2.321,2.139,3.574,2.848c1.045,0.586,2.405,1.029,4.075,1.321C620.102,87.032,621.439,87.195,622.445,87.237
		 M604.521,20.741c0-4.257-1.312-7.578-3.923-9.96c-2.613-2.383-6.288-3.574-11.015-3.574h-9.979l-8.795,38.604h8.898
		c6.849,0,12.698-2.389,17.542-7.177C602.096,33.855,604.521,27.889,604.521,20.741"/>
	<path class="st0" d="M710.422,2.441l-4.951,21.438h-4.699c-0.251-4.427-1.182-8.151-2.79-11.155
		c-1.608-3.007-3.772-4.72-6.487-5.14c-1.253-0.169-2.779-0.296-4.576-0.374c-1.797-0.088-3.821-0.127-6.077-0.127h-14.293
		l-8.268,35.786h10.048c3.099,0,5.508-0.306,7.223-0.912c1.716-0.602,3.246-1.618,4.587-3.04c1.256-1.253,2.471-2.972,3.643-5.166
		c1.175-2.197,2.011-4.042,2.513-5.546h4.7l-8.023,34.718h-4.697c0-0.458,0.032-1.012,0.091-1.663
		c0.065-0.648,0.098-1.348,0.098-2.096c0-1.546-0.107-3.034-0.312-4.45c-0.211-1.419-0.501-2.467-0.879-3.138
		c-0.872-1.625-2.119-2.692-3.743-3.196c-1.621-0.498-3.743-0.749-6.363-0.749h-9.986l-6.292,27.212
		c-0.247,1.012-0.459,2.109-0.625,3.278c-0.166,1.178-0.251,2.1-0.251,2.767c0,2.311,0.824,3.841,2.478,4.593
		c1.653,0.755,5.303,1.132,10.949,1.132c7.028,0,11.8-0.25,14.31-0.755s4.368-1.24,5.586-2.2c2.382-1.927,5.175-5.01,8.375-9.238
		c3.199-4.235,5.345-7.314,6.435-9.244h4.509l-7.712,26.203h-73.882l0.938-4.141c1.296-0.084,3.008-0.26,5.137-0.534
		c2.135-0.27,3.574-0.553,4.325-0.846c1.462-0.543,2.582-1.357,3.356-2.441c0.771-1.084,1.302-2.36,1.595-3.825l14.925-64.553
		c0.081-0.329,0.156-0.709,0.218-1.126c0.062-0.42,0.095-0.817,0.095-1.188c0-0.839-0.18-1.591-0.534-2.259
		c-0.358-0.67-0.993-1.233-1.914-1.692c-0.999-0.544-2.422-1.019-4.258-1.439c-1.842-0.417-3.284-0.667-4.329-0.755l0.94-4.137
		H710.422z"/>
	<path class="st0" d="M791.064,2.441l-4.947,21.438h-4.703c-0.251-4.427-1.182-8.151-2.786-11.155
		c-1.611-3.007-3.772-4.72-6.491-5.14c-1.253-0.169-2.776-0.296-4.573-0.374c-1.797-0.088-3.821-0.127-6.08-0.127h-14.289
		l-8.271,35.786h10.048c3.103,0,5.508-0.306,7.224-0.912c1.719-0.602,3.248-1.618,4.586-3.04c1.257-1.253,2.471-2.972,3.646-5.166
		c1.172-2.197,2.009-4.042,2.513-5.546h4.7l-8.023,34.718h-4.7c0-0.458,0.032-1.012,0.095-1.663
		c0.062-0.648,0.094-1.348,0.094-2.096c0-1.546-0.104-3.034-0.312-4.45c-0.205-1.419-0.501-2.467-0.875-3.138
		c-0.876-1.625-2.119-2.692-3.743-3.196c-1.624-0.498-3.743-0.749-6.367-0.749h-9.986l-6.288,27.212
		c-0.251,1.012-0.463,2.109-0.629,3.278c-0.166,1.178-0.25,2.1-0.25,2.767c0,2.311,0.823,3.841,2.477,4.593
		c1.653,0.755,5.303,1.132,10.95,1.132c7.03,0,11.799-0.25,14.309-0.755s4.375-1.24,5.586-2.2c2.386-1.927,5.179-5.01,8.378-9.238
		c3.2-4.235,5.342-7.314,6.433-9.244h4.511l-7.714,26.203h-73.883l0.941-4.141c1.292-0.084,3.004-0.26,5.136-0.534
		c2.133-0.27,3.571-0.553,4.326-0.846c1.458-0.543,2.578-1.357,3.353-2.441s1.302-2.36,1.595-3.825l14.925-64.553
		c0.085-0.329,0.156-0.709,0.222-1.126c0.059-0.42,0.091-0.817,0.091-1.188c0-0.839-0.179-1.591-0.534-2.259
		c-0.354-0.67-0.992-1.233-1.91-1.692c-1.003-0.544-2.426-1.019-4.261-1.439c-1.84-0.417-3.285-0.667-4.326-0.755l0.944-4.137
		H791.064z"/>
	<path class="st0" d="M41.391,136.841h3.249l5.556,30.138h-3.463l-1.364-7.91H29.035l-5.644,7.91h-3.714L41.391,136.841z
		 M44.812,155.99l-2.695-15.305L31.173,155.99H44.812z"/>
	<path class="st0" d="M61.106,137.049h7.223c5.003,0,9.062,1.413,11.669,3.981c2.142,2.135,3.251,4.954,3.251,8.593
		c0,4.57-1.667,8.59-4.7,11.672c-3.593,3.587-8.98,5.683-15.351,5.683H53.066L61.106,137.049z M68.118,140.17h-4.446l-6.37,23.684
		h6.324c5.003,0,9.319-1.667,12.356-4.7c2.393-2.393,3.763-5.641,3.763-9.319c0-2.819-0.898-5.042-2.523-6.627
		C75.256,141.241,72.092,140.17,68.118,140.17"/>
	<polygon class="st0" points="86.209,137.049 89.796,137.049 93.474,162.79 110.96,137.049 114.804,137.049 93.943,167.193 
		90.909,167.193 	"/>
	<polygon class="st0" points="118.489,137.049 121.868,137.049 113.831,166.979 110.452,166.979 	"/>
	<path class="st0" d="M119.69,161.719l2.562-2.012c2.523,3.079,5.472,4.665,9.876,4.665c4.316,0,7.568-2.35,7.568-5.602
		c0-2.308-1.537-3.675-6.159-5.472c-5.511-2.181-8.206-4.104-8.206-7.998c0-2.047,0.771-3.971,2.308-5.468
		c2.008-2.012,5.045-3.206,8.724-3.206c4.658,0,8.336,1.878,10.602,4.527l-2.48,2.223c-2.181-2.392-4.915-3.714-8.424-3.714
		c-4.489,0-7.181,2.523-7.181,5.257c0,2.435,1.927,3.675,6.624,5.511c5.13,1.969,7.74,4.062,7.74,7.91
		c0,2.266-0.94,4.238-2.435,5.774c-2.096,2.096-5.26,3.291-8.893,3.291C126.398,167.405,122.251,165.267,119.69,161.719"/>
	<path class="st0" d="M177.961,149.493c0,4.831-2.096,9.573-5.429,12.955c-3.118,3.079-7.308,5.084-12.011,5.084
		c-7.737,0-13.127-5.687-13.127-12.994c0-4.831,2.096-9.537,5.475-12.909c3.079-3.08,7.269-5.091,11.972-5.091
		C172.577,136.538,177.961,142.225,177.961,149.493 M169.882,160.479c2.864-2.861,4.534-6.881,4.534-10.859
		c0-5.641-3.809-9.957-9.794-9.957c-3.632,0-6.796,1.537-9.146,3.932c-2.864,2.819-4.531,6.835-4.531,10.855
		c0,5.647,3.805,9.963,9.788,9.963C164.365,164.414,167.532,162.829,169.882,160.479"/>
	<path class="st0" d="M193.36,155.349h-0.726h-7.356l-3.118,11.627h-3.379l8.037-29.923h10.774c3.763,0,6.582,0.94,8.42,2.734
		c1.286,1.332,1.966,3.125,1.966,5.176c0,2.607-0.983,4.785-2.65,6.497c-1.966,1.969-5.13,3.079-8.291,3.59l6.155,11.926h-3.893
		L193.36,155.349z M194.213,152.312c3.936,0,6.842-1.064,8.509-2.731c1.155-1.201,1.793-2.61,1.793-4.365
		c0-1.283-0.427-2.432-1.237-3.249c-1.156-1.149-3.034-1.797-5.859-1.797h-8.033l-3.294,12.141H194.213z"/>
	<path class="st0" d="M206.791,161.719l2.562-2.012c2.526,3.079,5.475,4.665,9.879,4.665c4.316,0,7.564-2.35,7.564-5.602
		c0-2.308-1.536-3.675-6.155-5.472c-5.514-2.181-8.206-4.104-8.206-7.998c0-2.047,0.768-3.971,2.304-5.468
		c2.012-2.012,5.049-3.206,8.724-3.206c4.661,0,8.336,1.878,10.602,4.527l-2.477,2.223c-2.181-2.392-4.918-3.714-8.424-3.714
		c-4.489,0-7.184,2.523-7.184,5.257c0,2.435,1.927,3.675,6.627,5.511c5.13,1.969,7.74,4.062,7.74,7.91
		c0,2.266-0.94,4.238-2.438,5.774c-2.096,2.096-5.26,3.291-8.893,3.291C213.502,167.405,209.353,165.267,206.791,161.719"/>
</g>
</svg>
