<?xml version="1.0" encoding="utf-8"?>
<!-- Generator: Adobe Illustrator 16.0.0, SVG Export Plug-In . SVG Version: 6.00 Build 0)  -->
<!DOCTYPE svg PUBLIC "-//W3C//DTD SVG 1.1//EN" "http://www.w3.org/Graphics/SVG/1.1/DTD/svg11.dtd">
<svg version="1.1" id="Layer_1" xmlns="http://www.w3.org/2000/svg" xmlns:xlink="http://www.w3.org/1999/xlink" x="0px" y="0px"
	 width="293px" height="35px" viewBox="0 0 293 35" style="enable-background:new 0 0 293 35;" xml:space="preserve">
<style type="text/css">
<![CDATA[
	.st0{fill:#6BBB6F;}
]]>
</style>
<g>
	<path class="st0" d="M36.466,13.504c0,2.781-0.522,5.464-1.564,8.053c-1.043,2.584-2.506,4.837-4.39,6.751
		c-1.93,1.963-4.201,3.516-6.811,4.657c-2.611,1.144-5.568,1.713-8.874,1.713c-4.324,0-7.876-1.246-10.657-3.739
		C1.391,28.443,0,25.18,0,21.151c0-2.935,0.564-5.696,1.692-8.281c1.127-2.588,2.688-4.847,4.679-6.777
		c1.947-1.9,4.229-3.39,6.846-4.471C15.835,0.54,18.596,0,21.499,0c4.356,0,7.939,1.22,10.75,3.66
		C35.059,6.101,36.466,9.382,36.466,13.504 M24.349,25.644c1.049-2.13,1.829-4.449,2.339-6.959c0.511-2.511,0.766-4.985,0.766-7.426
		c0-2.826-0.542-5.05-1.624-6.672c-1.08-1.621-2.694-2.432-4.84-2.432c-1.886,0-3.572,0.632-5.063,1.9
		c-1.489,1.266-2.744,2.91-3.763,4.933c-1.02,2.022-1.799,4.31-2.339,6.858c-0.542,2.547-0.812,5.082-0.812,7.599
		c0,2.734,0.539,4.932,1.621,6.59c1.081,1.661,2.704,2.492,4.865,2.492c1.87,0,3.565-0.649,5.086-1.946
		C22.105,29.282,23.36,27.636,24.349,25.644"/>
	<path class="st0" d="M75.76,0.902l-0.395,1.692c-0.434,0.045-1.062,0.128-1.888,0.243c-0.827,0.115-1.634,0.421-2.421,0.916
		c-0.664,0.417-1.232,1.135-1.702,2.155c-0.47,1.019-0.939,2.51-1.403,4.47l-5.448,23.584h-3.899L44.426,7.63l-3.758,16.44
		c-0.202,0.865-0.356,1.675-0.464,2.431c-0.108,0.758-0.162,1.359-0.162,1.807c0,0.635,0.062,1.123,0.185,1.471
		c0.124,0.35,0.301,0.638,0.533,0.871c0.356,0.356,0.978,0.664,1.865,0.927c0.886,0.261,1.547,0.432,1.98,0.509l-0.393,1.692H30.076
		l0.394-1.692c0.416-0.061,1.077-0.168,1.981-0.324c0.904-0.154,1.68-0.433,2.328-0.835c0.68-0.431,1.252-1.138,1.715-2.118
		s0.919-2.474,1.367-4.482l3.578-15.478c0.077-0.355,0.142-0.69,0.197-1.006c0.054-0.318,0.081-0.606,0.081-0.869
		c0-0.463-0.055-0.909-0.163-1.332c-0.108-0.425-0.309-0.815-0.604-1.171c-0.433-0.524-0.967-0.93-1.601-1.216
		c-0.636-0.285-1.379-0.506-2.23-0.66l0.418-1.692h12.146l12.399,23.178l3.083-13.47c0.216-0.99,0.375-1.795,0.475-2.421
		c0.101-0.626,0.151-1.208,0.151-1.75c0-0.602-0.064-1.092-0.197-1.47c-0.13-0.379-0.319-0.692-0.567-0.938
		c-0.338-0.34-0.936-0.644-1.79-0.915c-0.857-0.272-1.517-0.444-1.979-0.522l0.393-1.692H75.76z"/>
	<path class="st0" d="M105.524,0.902L103.6,9.29h-1.736c-0.216-1.464-0.739-2.806-1.566-4.028c-0.828-1.223-1.698-1.934-2.61-2.135
		c-0.433-0.108-1.06-0.175-1.879-0.196c-0.821-0.023-1.501-0.036-2.042-0.036h-4.548l-2.967,12.834h3.158
		c1.16,0,2.068-0.126,2.727-0.381s1.272-0.614,1.845-1.077c0.435-0.355,0.94-0.993,1.521-1.912c0.58-0.918,0.995-1.704,1.242-2.351
		h1.738l-3.175,13.714H93.57v-0.858c0-0.694-0.073-1.407-0.22-2.142c-0.148-0.735-0.322-1.248-0.522-1.54
		c-0.403-0.588-0.937-0.977-1.603-1.17c-0.667-0.194-1.423-0.29-2.275-0.29h-3.158l-2.115,9.149
		c-0.109,0.463-0.208,0.965-0.301,1.507c-0.093,0.542-0.138,0.929-0.138,1.158c0,0.99,0.323,1.61,0.973,1.866
		c0.647,0.255,1.846,0.381,3.59,0.381c2.223,0,3.846-0.096,4.865-0.289c1.019-0.191,1.784-0.489,2.294-0.892
		c0.926-0.771,2.039-1.954,3.335-3.543c1.296-1.592,2.179-2.766,2.642-3.523h1.691l-2.99,10.242H69.037l0.395-1.692
		c0.384-0.014,0.961-0.065,1.724-0.149c0.766-0.086,1.333-0.19,1.704-0.312c0.602-0.201,1.061-0.511,1.377-0.927
		c0.318-0.418,0.538-0.898,0.661-1.437l5.313-22.982c0.077-0.322,0.13-0.593,0.163-0.811c0.031-0.215,0.045-0.377,0.045-0.485
		c0-0.649-0.329-1.155-0.984-1.519c-0.657-0.363-1.727-0.651-3.209-0.868l0.395-1.692H105.524z"/>
	<path class="st0" d="M141.997,13.576c0,3.136-0.611,5.98-1.831,8.535c-1.219,2.559-2.817,4.676-4.795,6.36
		c-2.054,1.745-4.343,3.066-6.87,3.962c-2.524,0.896-5.168,1.344-7.934,1.344h-14.339l0.346-1.528c0.402,0,0.97-0.039,1.704-0.117
		c0.734-0.077,1.255-0.178,1.564-0.302c0.556-0.216,0.976-0.522,1.262-0.914c0.285-0.395,0.483-0.861,0.591-1.403l5.469-23.651
		c0.046-0.187,0.087-0.392,0.126-0.615c0.038-0.226,0.057-0.406,0.057-0.545c0-0.339-0.057-0.636-0.173-0.89
		c-0.115-0.255-0.352-0.468-0.706-0.639c-0.403-0.185-0.896-0.342-1.484-0.475c-0.587-0.132-1.035-0.219-1.343-0.265l0.348-1.531
		h13.922c1.39,0,2.903,0.198,4.54,0.592c1.638,0.394,3.167,1.068,4.588,2.026c1.498,1.005,2.697,2.346,3.603,4.021
		C141.546,9.216,141.997,11.227,141.997,13.576 M136.553,13.605c0-3.46-0.928-6.15-2.782-8.067c-1.855-1.917-4.32-2.875-7.397-2.875
		c-0.635,0-1.29,0.012-1.97,0.035c-0.682,0.023-1.216,0.043-1.602,0.058l-5.876,25.525c-0.047,0.218-0.086,0.427-0.116,0.628
		c-0.031,0.202-0.046,0.392-0.046,0.579c0,0.929,0.386,1.581,1.158,1.958c0.773,0.379,2.04,0.568,3.8,0.568
		c2.302,0,4.4-0.523,6.292-1.576c1.892-1.051,3.463-2.449,4.715-4.197c1.282-1.809,2.24-3.779,2.874-5.912
		C136.236,18.198,136.553,15.956,136.553,13.605"/>
	<path class="st0" d="M169.849,0.902l-1.83,7.924h-1.738c-0.093-1.636-0.435-3.013-1.03-4.124c-0.596-1.112-1.394-1.745-2.398-1.899
		c-0.464-0.063-1.027-0.11-1.691-0.139c-0.665-0.033-1.412-0.047-2.245-0.047h-5.285l-3.056,13.228h3.714
		c1.146,0,2.035-0.112,2.671-0.336c0.635-0.223,1.199-0.598,1.695-1.124c0.465-0.463,0.912-1.099,1.346-1.91
		c0.435-0.812,0.742-1.494,0.93-2.05h1.737l-2.966,12.833h-1.737c0-0.17,0.013-0.373,0.034-0.614c0.023-0.24,0.035-0.5,0.035-0.775
		c0-0.572-0.038-1.123-0.115-1.646c-0.076-0.525-0.185-0.912-0.324-1.16c-0.322-0.601-0.784-0.995-1.384-1.182
		c-0.6-0.184-1.383-0.277-2.353-0.277h-3.691l-2.325,10.059c-0.092,0.375-0.171,0.78-0.231,1.212
		c-0.062,0.435-0.093,0.775-0.093,1.022c0,0.854,0.305,1.419,0.915,1.697c0.611,0.28,1.961,0.419,4.048,0.419
		c2.599,0,4.362-0.092,5.289-0.279c0.928-0.187,1.618-0.459,2.065-0.813c0.882-0.713,1.914-1.853,3.097-3.415
		c1.183-1.565,1.974-2.703,2.378-3.417h1.666l-2.85,9.685h-27.312l0.348-1.53c0.478-0.031,1.111-0.097,1.899-0.197
		c0.788-0.1,1.32-0.205,1.599-0.312c0.54-0.201,0.953-0.502,1.24-0.903c0.286-0.4,0.481-0.872,0.589-1.413l5.516-23.863
		c0.03-0.122,0.059-0.262,0.082-0.416c0.022-0.155,0.035-0.302,0.035-0.439c0-0.311-0.068-0.588-0.198-0.835
		c-0.131-0.248-0.367-0.456-0.706-0.626c-0.371-0.201-0.897-0.376-1.575-0.531c-0.68-0.154-1.214-0.247-1.599-0.28l0.347-1.529
		H169.849z"/>
	<path class="st0" d="M182.956,34.564c-1.854,0-3.576-0.293-5.167-0.882c-1.591-0.586-2.98-1.454-4.169-2.597
		c-1.189-1.145-2.121-2.537-2.791-4.177c-0.673-1.639-1.009-3.516-1.009-5.635c0-2.986,0.521-5.759,1.564-8.316
		c1.041-2.559,2.467-4.799,4.273-6.715c1.775-1.902,3.875-3.399,6.301-4.491c2.426-1.09,4.981-1.635,7.668-1.635
		c2.133,0,3.958,0.246,5.479,0.738c1.521,0.491,2.714,1.034,3.579,1.627l1.298-1.576h1.854l-2.434,11.491h-1.9
		c-0.029-1.285-0.138-2.547-0.323-3.784c-0.187-1.238-0.57-2.354-1.156-3.344c-0.604-1.007-1.43-1.804-2.48-2.392
		c-1.051-0.587-2.518-0.883-4.401-0.883c-1.9,0-3.695,0.492-5.386,1.472c-1.691,0.983-3.178,2.362-4.46,4.138
		c-1.252,1.717-2.236,3.78-2.954,6.192c-0.718,2.411-1.078,4.991-1.078,7.744c0,3.43,0.811,6.133,2.433,8.113
		c1.62,1.978,3.858,2.969,6.714,2.969c1.358,0,2.539-0.202,3.542-0.604c1.004-0.403,1.798-0.851,2.387-1.343
		c0.216-0.635,0.419-1.303,0.614-2.004c0.192-0.703,0.406-1.565,0.637-2.585l0.44-1.991c0.029-0.17,0.066-0.371,0.104-0.601
		c0.04-0.233,0.059-0.449,0.059-0.65c0-0.385-0.05-0.703-0.15-0.949c-0.1-0.246-0.345-0.455-0.728-0.626
		c-0.448-0.23-1.102-0.404-1.956-0.521c-0.856-0.117-1.515-0.189-1.979-0.221l0.348-1.575h14.434l-0.348,1.575
		c-0.4,0.048-0.922,0.12-1.563,0.221c-0.641,0.1-1.178,0.244-1.609,0.429c-0.556,0.249-0.969,0.582-1.24,0.998
		c-0.27,0.418-0.476,0.914-0.614,1.485l-0.601,2.668c-0.355,1.472-0.604,2.569-0.743,3.295c-0.138,0.728-0.261,1.418-0.369,2.066
		c-1.021,0.419-1.928,0.782-2.724,1.092c-0.793,0.308-1.786,0.61-2.976,0.903c-1.081,0.28-2.12,0.495-3.116,0.651
		C185.261,34.487,184.161,34.564,182.956,34.564"/>
	<path class="st0" d="M230.086,32.247l-0.369,1.529h-8.314c-1.314-3.12-2.559-5.788-3.729-8.006
		c-1.17-2.215-2.404-4.534-3.705-6.958h-3.428l-2.452,10.606c-0.03,0.125-0.058,0.272-0.079,0.445
		c-0.025,0.168-0.037,0.293-0.037,0.369c0,0.356,0.066,0.666,0.198,0.927c0.132,0.262,0.366,0.47,0.707,0.625
		c0.215,0.094,0.675,0.189,1.379,0.29c0.701,0.102,1.286,0.159,1.749,0.174l-0.371,1.529h-13.913l0.372-1.529
		c0.385-0.03,0.934-0.085,1.645-0.162s1.219-0.177,1.529-0.301c0.554-0.217,0.979-0.527,1.272-0.938
		c0.295-0.409,0.495-0.884,0.603-1.424l5.549-24c0.03-0.155,0.058-0.313,0.082-0.476c0.021-0.163,0.033-0.32,0.033-0.476
		c0-0.322-0.062-0.61-0.186-0.855c-0.123-0.247-0.354-0.441-0.695-0.58c-0.323-0.123-0.794-0.248-1.412-0.371
		c-0.617-0.123-1.128-0.201-1.529-0.23l0.348-1.53h14.787c1.329,0,2.541,0.13,3.641,0.394c1.096,0.264,2.017,0.626,2.756,1.09
		c0.82,0.492,1.465,1.142,1.936,1.946c0.472,0.801,0.707,1.753,0.707,2.848c0,1.453-0.269,2.776-0.81,3.973
		c-0.542,1.199-1.275,2.221-2.202,3.07c-0.975,0.88-2.078,1.611-3.315,2.191c-1.237,0.577-2.597,1.037-4.08,1.377
		c1.207,2.333,2.188,4.178,2.942,5.538c0.759,1.358,1.648,3.035,2.667,5.026c0.526,1.003,0.998,1.726,1.413,2.166
		c0.418,0.44,0.859,0.792,1.321,1.053c0.388,0.217,0.89,0.38,1.507,0.489C229.221,32.171,229.715,32.232,230.086,32.247
		 M223.461,7.667c0-1.574-0.486-2.801-1.45-3.682c-0.966-0.881-2.325-1.321-4.072-1.321h-3.689l-3.25,14.27h3.29
		c2.53,0,4.693-0.883,6.483-2.653C222.564,12.514,223.461,10.309,223.461,7.667"/>
	<path class="st0" d="M262.606,0.902l-1.83,7.924h-1.736c-0.094-1.636-0.437-3.013-1.032-4.124
		c-0.594-1.112-1.394-1.745-2.396-1.899c-0.464-0.063-1.028-0.11-1.692-0.139c-0.665-0.033-1.413-0.047-2.246-0.047h-5.283
		l-3.058,13.228h3.714c1.146,0,2.037-0.112,2.671-0.336c0.635-0.223,1.2-0.598,1.696-1.124c0.464-0.463,0.912-1.099,1.346-1.91
		c0.434-0.812,0.744-1.494,0.929-2.05h1.738l-2.966,12.833h-1.737c0-0.17,0.012-0.373,0.034-0.614c0.024-0.24,0.036-0.5,0.036-0.775
		c0-0.572-0.04-1.123-0.115-1.646c-0.078-0.525-0.186-0.912-0.326-1.16c-0.322-0.601-0.782-0.995-1.383-1.182
		c-0.599-0.184-1.383-0.277-2.352-0.277h-3.692l-2.326,10.059c-0.091,0.375-0.169,0.78-0.23,1.212
		c-0.061,0.435-0.093,0.775-0.093,1.022c0,0.854,0.305,1.419,0.915,1.697c0.612,0.28,1.96,0.419,4.048,0.419
		c2.599,0,4.361-0.092,5.29-0.279c0.928-0.187,1.614-0.459,2.064-0.813c0.88-0.713,1.913-1.853,3.095-3.415
		c1.184-1.565,1.977-2.703,2.379-3.417h1.667l-2.851,9.685h-27.31l0.347-1.53c0.479-0.031,1.11-0.097,1.897-0.197
		c0.79-0.1,1.321-0.205,1.599-0.312c0.542-0.201,0.955-0.502,1.242-0.903c0.285-0.4,0.48-0.872,0.588-1.413l5.518-23.863
		c0.03-0.122,0.059-0.262,0.08-0.416c0.023-0.155,0.035-0.302,0.035-0.439c0-0.311-0.065-0.588-0.197-0.835
		c-0.132-0.248-0.366-0.456-0.707-0.626c-0.37-0.201-0.896-0.376-1.573-0.531c-0.682-0.154-1.215-0.247-1.601-0.28l0.348-1.529
		H262.606z"/>
	<path class="st0" d="M292.417,0.902l-1.829,7.924h-1.739c-0.092-1.636-0.437-3.013-1.029-4.124
		c-0.596-1.112-1.395-1.745-2.399-1.899c-0.463-0.063-1.026-0.11-1.69-0.139c-0.665-0.033-1.413-0.047-2.247-0.047h-5.283
		l-3.058,13.228h3.715c1.147,0,2.037-0.112,2.669-0.336c0.637-0.223,1.202-0.598,1.696-1.124c0.465-0.463,0.914-1.099,1.348-1.91
		c0.434-0.812,0.743-1.494,0.93-2.05h1.736l-2.966,12.833h-1.737c0-0.17,0.013-0.373,0.034-0.614c0.023-0.24,0.035-0.5,0.035-0.775
		c0-0.572-0.038-1.123-0.114-1.646c-0.077-0.525-0.187-0.912-0.324-1.16c-0.323-0.601-0.783-0.995-1.384-1.182
		c-0.601-0.184-1.384-0.277-2.354-0.277h-3.691l-2.324,10.059c-0.093,0.375-0.172,0.78-0.233,1.212
		c-0.061,0.435-0.092,0.775-0.092,1.022c0,0.854,0.305,1.419,0.916,1.697c0.611,0.28,1.96,0.419,4.048,0.419
		c2.598,0,4.361-0.092,5.289-0.279c0.927-0.187,1.617-0.459,2.063-0.813c0.883-0.713,1.916-1.853,3.098-3.415
		c1.184-1.565,1.976-2.703,2.378-3.417h1.668l-2.853,9.685h-27.31l0.348-1.53c0.477-0.031,1.11-0.097,1.898-0.197
		c0.789-0.1,1.32-0.205,1.599-0.312c0.539-0.201,0.952-0.502,1.239-0.903c0.286-0.4,0.481-0.872,0.59-1.413l5.518-23.863
		c0.03-0.122,0.058-0.262,0.081-0.416c0.021-0.155,0.033-0.302,0.033-0.439c0-0.311-0.065-0.588-0.196-0.835
		c-0.132-0.248-0.368-0.456-0.707-0.626c-0.37-0.201-0.896-0.376-1.575-0.531c-0.68-0.154-1.214-0.247-1.599-0.28l0.349-1.529
		H292.417z"/>
</g>
</svg>
