<?xml version="1.0" encoding="utf-8"?>
<!-- Generator: Adobe Illustrator 16.0.0, SVG Export Plug-In . SVG Version: 6.00 Build 0)  -->
<!DOCTYPE svg PUBLIC "-//W3C//DTD SVG 1.1//EN" "http://www.w3.org/Graphics/SVG/1.1/DTD/svg11.dtd">
<svg version="1.1" id="Layer_1" xmlns="http://www.w3.org/2000/svg" xmlns:xlink="http://www.w3.org/1999/xlink" x="0px" y="0px"
	 width="1000px" height="532.538px" viewBox="0 0 1000 532.538" style="enable-background:new 0 0 1000 532.538;"
	 xml:space="preserve">
<style type="text/css">
<![CDATA[
	.st0{fill:#6BBB6F;}
]]>
</style>
<g>
	<path class="st0" d="M282.674,157.502c0,21.417-4.021,42.088-12.049,62.012c-8.028,19.91-19.298,37.247-33.81,51.988
		c-14.86,15.103-32.342,27.069-52.447,35.876c-20.094,8.787-42.871,13.183-68.326,13.183c-33.302,0-60.659-9.593-82.065-28.808
		c-21.406-19.2-32.109-44.328-32.109-75.376c0-22.596,4.341-43.852,13.02-63.766c8.686-19.92,20.696-37.319,36.04-52.193
		c14.985-14.634,32.564-26.102,52.718-34.433c20.157-8.324,41.417-12.48,63.783-12.48c33.528,0,61.125,9.388,82.778,28.188
		C271.85,100.475,282.674,125.752,282.674,157.502 M189.367,250.987c8.087-16.415,14.091-34.276,18.018-53.602
		c3.92-19.329,5.885-38.387,5.885-57.177c0-21.761-4.16-38.898-12.484-51.379c-8.334-12.498-20.762-18.735-37.285-18.735
		c-14.515,0-27.507,4.88-38.982,14.634c-11.479,9.743-21.145,22.408-28.989,37.987c-7.851,15.59-13.854,33.184-18.015,52.815
		c-4.17,19.618-6.254,39.132-6.254,58.524c0,21.044,4.17,37.97,12.494,50.742c8.324,12.78,20.808,19.173,37.462,19.173
		c14.386,0,27.444-4.981,39.156-14.985C172.09,279.002,181.756,266.337,189.367,250.987"/>
	<path class="st0" d="M597.94,60.456l-3.026,13.026c-3.332,0.351-8.182,0.991-14.533,1.875c-6.372,0.89-12.584,3.238-18.644,7.05
		c-5.12,3.204-9.496,8.731-13.12,16.592c-3.625,7.851-7.222,19.326-10.797,34.433l-41.96,181.613h-30.036L356.649,112.259
		l-28.94,126.602c-1.551,6.661-2.737,12.905-3.572,18.724c-0.828,5.837-1.245,10.477-1.245,13.924c0,4.883,0.473,8.654,1.426,11.325
		c0.95,2.679,2.32,4.912,4.104,6.692c2.738,2.734,7.527,5.106,14.355,7.131c6.842,2.024,11.927,3.346,15.249,3.931l-3.029,13.037
		H246.138l3.03-13.037c3.214-0.473,8.296-1.308,15.259-2.491c6.957-1.189,12.933-3.339,17.931-6.421
		c5.225-3.346,9.635-8.787,13.201-16.341c3.572-7.545,7.075-19.058,10.536-34.516l27.542-119.172
		c0.591-2.734,1.096-5.315,1.513-7.757c0.417-2.438,0.626-4.665,0.626-6.679c0-3.572-0.417-6.988-1.242-10.265
		c-0.842-3.273-2.386-6.271-4.658-9.009c-3.336-4.045-7.451-7.162-12.334-9.371c-4.894-2.191-10.612-3.899-17.169-5.085l3.21-13.026
		h93.537l95.488,178.489l23.737-103.739c1.662-7.611,2.887-13.827,3.659-18.641c0.766-4.817,1.154-9.298,1.154-13.475
		c0-4.64-0.5-8.397-1.509-11.312c-1.002-2.933-2.463-5.333-4.355-7.235c-2.615-2.608-7.228-4.957-13.81-7.043
		c-6.594-2.087-11.669-3.416-15.231-4.018l3.03-13.026H597.94z"/>
	<path class="st0" d="M826.065,60.456l-14.804,64.59h-13.385c-1.67-11.267-5.684-21.601-12.063-31.02
		c-6.372-9.427-13.064-14.891-20.091-16.442c-3.339-0.825-8.167-1.336-14.483-1.503c-6.303-0.195-11.549-0.278-15.709-0.278h-35.026
		l-22.847,98.838h24.307c8.939,0,15.945-0.992,21.01-2.95c5.064-1.969,9.802-4.724,14.206-8.286
		c3.332-2.737,7.241-7.656,11.708-14.728c4.473-7.079,7.652-13.11,9.572-18.102h13.371L747.398,236.18h-13.385v-6.588
		c0-5.364-0.57-10.867-1.697-16.519c-1.141-5.631-2.477-9.593-4.035-11.857c-3.096-4.508-7.207-7.524-12.327-9.009
		c-5.134-1.475-10.971-2.219-17.523-2.219h-24.328l-16.278,70.465c-0.828,3.572-1.607,7.423-2.324,11.601
		c-0.709,4.146-1.058,7.138-1.058,8.905c0,7.625,2.498,12.411,7.486,14.373c4.994,1.961,14.212,2.936,27.646,2.936
		c17.128,0,29.622-0.744,37.477-2.219c7.854-1.482,13.739-3.784,17.663-6.873c7.138-5.948,15.694-15.048,25.684-27.302
		c9.99-12.248,16.78-21.284,20.342-27.11h13.023l-23.014,78.865H545.083l3.033-13.037c2.978-0.111,7.409-0.501,13.287-1.169
		c5.899-0.647,10.269-1.454,13.12-2.407c4.634-1.544,8.182-3.917,10.609-7.124c2.441-3.214,4.14-6.901,5.085-11.075l40.913-176.965
		c0.599-2.487,1.009-4.584,1.259-6.244c0.237-1.673,0.349-2.905,0.349-3.743c0-4.999-2.525-8.898-7.583-11.691
		c-5.051-2.793-13.288-5.02-24.711-6.689l3.04-13.026H826.065z"/>
	<path class="st0" d="M997.932,61.197c-1.662,21.016-10.859,38.154-27.569,51.441c-16.717,13.281-37.553,18.93-62.514,16.943
		c-17.322-1.363-30.888-6.995-40.683-16.867c-9.809-9.882-14.095-22.54-12.87-37.991c1.684-21.218,10.776-38.321,27.271-51.33
		c16.494-13.009,36.927-18.54,61.303-16.609c19.674,1.569,34.054,7.367,43.16,17.371C995.128,34.187,999.101,46.528,997.932,61.197
		 M943.711,94.794c3.437-7.385,6.171-15.437,8.195-24.123c2.011-8.686,3.36-17.242,4.027-25.649
		c0.668-8.397-0.292-14.947-2.88-19.632c-2.581-4.679-7.096-7.267-13.559-7.795c-6.456-0.511-12.425,1.503-17.906,6.042
		c-5.489,4.525-10.08,10.919-13.788,19.176c-3.2,6.832-5.768,14.968-7.708,24.404c-1.928,9.437-3.145,17.381-3.652,23.82
		c-0.766,9.586,0.264,16.508,3.074,20.759c2.811,4.257,7.305,6.623,13.462,7.117c6.755,0.546,12.737-1.569,17.941-6.331
		C936.114,107.842,940.379,101.904,943.711,94.794"/>
	<path class="st0" d="M119.852,443.591h9.263l15.841,85.916h-9.872l-3.893-22.554H84.626l-16.084,22.554H57.951L119.852,443.591z
		 M129.602,498.174l-7.677-43.625l-31.198,43.625H129.602z"/>
	<path class="st0" d="M176.059,444.19h20.588c14.261,0,25.834,4.021,33.267,11.339c6.094,6.094,9.259,14.122,9.259,24.501
		c0,13.023-4.751,24.488-13.395,33.274c-10.244,10.22-25.601,16.202-43.754,16.202H153.14L176.059,444.19z M196.039,453.081h-12.675
		l-18.157,67.515h18.032c14.265,0,26.568-4.752,35.226-13.398c6.817-6.818,10.724-16.077,10.724-26.568
		c0-8.028-2.563-14.373-7.189-18.888C216.391,456.142,207.375,453.081,196.039,453.081"/>
	<polygon class="st0" points="247.609,444.19 257.842,444.19 268.323,517.562 318.168,444.19 329.132,444.19 269.666,530.119 
		261.015,530.119 	"/>
	<polygon class="st0" points="339.636,444.19 349.265,444.19 326.353,529.507 316.728,529.507 	"/>
	<path class="st0" d="M343.056,514.509l7.308-5.732c7.189,8.779,15.597,13.301,28.15,13.301c12.306,0,21.569-6.706,21.569-15.972
		c0-6.582-4.379-10.478-17.552-15.598c-15.712-6.219-23.392-11.701-23.392-22.804c0-5.83,2.195-11.312,6.574-15.583
		c5.732-5.732,14.39-9.141,24.87-9.141c13.28,0,23.761,5.356,30.22,12.904l-7.064,6.338c-6.22-6.818-14.018-10.588-24.015-10.588
		c-12.787,0-20.474,7.193-20.474,14.985c0,6.943,5.493,10.477,18.888,15.708c14.623,5.621,22.063,11.583,22.063,22.554
		c0,6.455-2.682,12.076-6.946,16.459c-5.973,5.977-14.992,9.378-25.347,9.378C362.19,530.718,350.364,524.624,343.056,514.509"/>
	<path class="st0" d="M509.172,479.655c0,13.774-5.976,27.291-15.479,36.934c-8.894,8.779-20.835,14.49-34.241,14.49
		c-22.056,0-37.42-16.209-37.42-37.037c0-13.774,5.976-27.187,15.604-36.801c8.78-8.779,20.721-14.512,34.126-14.512
		C493.815,442.729,509.172,458.938,509.172,479.655 M486.142,510.975c8.161-8.153,12.922-19.618,12.922-30.958
		c0-16.077-10.853-28.384-27.917-28.384c-10.355,0-19.375,4.383-26.074,11.214c-8.171,8.028-12.922,19.479-12.922,30.944
		c0,16.098,10.853,28.397,27.907,28.397C470.413,522.188,479.442,517.674,486.142,510.975"/>
	<path class="st0" d="M553.069,496.352h-2.073h-20.968l-8.897,33.142h-9.621l22.908-85.303h30.714
		c10.728,0,18.763,2.685,24.001,7.798c3.659,3.792,5.607,8.912,5.607,14.755c0,7.43-2.797,13.635-7.555,18.519
		c-5.601,5.614-14.624,8.78-23.64,10.241l17.552,33.99h-11.096L553.069,496.352z M555.504,487.697
		c11.215,0,19.493-3.033,24.251-7.792c3.291-3.423,5.113-7.437,5.113-12.439c0-3.659-1.217-6.929-3.526-9.266
		c-3.291-3.27-8.654-5.12-16.696-5.12h-22.909l-9.392,34.617H555.504z"/>
	<path class="st0" d="M591.353,514.509l7.304-5.732c7.201,8.779,15.604,13.301,28.154,13.301c12.307,0,21.573-6.706,21.573-15.972
		c0-6.582-4.383-10.478-17.552-15.598c-15.723-6.219-23.389-11.701-23.389-22.804c0-5.83,2.191-11.312,6.566-15.583
		c5.732-5.732,14.387-9.141,24.871-9.141c13.28,0,23.764,5.356,30.227,12.904l-7.075,6.338
		c-6.212-6.818-14.011-10.588-24.007-10.588c-12.801,0-20.475,7.193-20.475,14.985c0,6.943,5.489,10.477,18.888,15.708
		c14.623,5.621,22.067,11.583,22.067,22.554c0,6.455-2.686,12.076-6.95,16.459c-5.976,5.977-14.991,9.378-25.357,9.378
		C610.49,530.718,598.656,524.624,591.353,514.509"/>
</g>
</svg>
