<?xml version="1.0" encoding="utf-8"?>
<!-- Generator: Adobe Illustrator 16.0.0, SVG Export Plug-In . SVG Version: 6.00 Build 0)  -->
<!DOCTYPE svg PUBLIC "-//W3C//DTD SVG 1.1//EN" "http://www.w3.org/Graphics/SVG/1.1/DTD/svg11.dtd">
<svg version="1.1" id="Layer_1" xmlns="http://www.w3.org/2000/svg" xmlns:xlink="http://www.w3.org/1999/xlink" x="0px" y="0px"
	 width="792px" height="420.06px" viewBox="0 0 792 420.06" style="enable-background:new 0 0 792 420.06;" xml:space="preserve">
<style type="text/css">
<![CDATA[
	.st0{fill:#FFFFFF;}
]]>
</style>
<g>
	<path class="st0" d="M222.746,119.852c0,16.988-3.189,33.386-9.558,49.191c-6.368,15.793-15.308,29.545-26.819,41.239
		c-11.787,11.98-25.655,21.472-41.603,28.458c-15.939,6.97-34.007,10.458-54.198,10.458c-26.417,0-48.117-7.61-65.097-22.852
		C8.49,211.115,0,191.183,0,166.554c0-17.923,3.443-34.785,10.328-50.581c6.89-15.802,16.417-29.603,28.588-41.401
		c11.887-11.608,25.831-20.705,41.818-27.313c15.989-6.603,32.854-9.9,50.595-9.9c26.596,0,48.488,7.447,65.664,22.361
		C214.159,74.616,222.746,94.667,222.746,119.852 M148.73,194.008c6.416-13.021,11.178-27.189,14.293-42.519
		c3.109-15.333,4.668-30.451,4.668-45.355c0-17.262-3.3-30.856-9.903-40.756c-6.611-9.914-16.469-14.861-29.576-14.861
		c-11.514,0-21.819,3.872-30.922,11.608c-9.105,7.729-16.773,17.775-22.995,30.133c-6.228,12.366-10.99,26.322-14.29,41.896
		c-3.309,15.562-4.961,31.041-4.961,46.423c0,16.693,3.309,30.12,9.911,40.251c6.603,10.137,16.505,15.208,29.716,15.208
		c11.412,0,21.77-3.951,31.06-11.886C135.026,216.23,142.694,206.184,148.73,194.008"/>
	<path class="st0" d="M472.826,42.871l-2.399,10.333c-2.645,0.279-6.49,0.787-11.528,1.487c-5.056,0.707-9.983,2.569-14.789,5.593
		c-4.062,2.542-7.533,6.926-10.408,13.162c-2.874,6.228-5.728,15.33-8.564,27.313l-33.284,144.062h-23.826L281.425,83.964
		L258.469,184.39c-1.231,5.284-2.171,10.236-2.833,14.853c-0.657,4.629-0.988,8.311-0.988,11.047c0,3.872,0.375,6.862,1.131,8.981
		c0.754,2.125,1.84,3.896,3.256,5.309c2.172,2.168,5.971,4.05,11.388,5.656c5.427,1.606,9.461,2.654,12.096,3.118l-2.404,10.342
		h-86.351l2.403-10.342c2.55-0.375,6.581-1.037,12.104-1.976c5.519-0.943,10.259-2.648,14.224-5.093
		c4.144-2.654,7.643-6.969,10.471-12.962c2.833-5.984,5.612-15.118,8.357-27.379l21.847-94.532c0.469-2.168,0.869-4.216,1.2-6.153
		c0.332-1.934,0.497-3.7,0.497-5.297c0-2.834-0.331-5.543-0.985-8.143c-0.667-2.597-1.892-4.975-3.694-7.146
		c-2.646-3.209-5.91-5.681-9.784-7.433c-3.882-1.738-8.418-3.093-13.62-4.034l2.547-10.333h74.197l75.746,141.585l18.828-82.29
		c1.319-6.037,2.29-10.968,2.902-14.787c0.607-3.821,0.916-7.375,0.916-10.689c0-3.681-0.397-6.661-1.197-8.973
		c-0.795-2.326-1.953-4.23-3.454-5.739c-2.075-2.069-5.734-3.932-10.954-5.587c-5.231-1.655-9.257-2.709-12.083-3.187l2.404-10.333
		H472.826z"/>
	<path class="st0" d="M653.784,42.871l-11.742,51.235h-10.618c-1.324-8.937-4.508-17.134-9.568-24.606
		c-5.055-7.478-10.363-11.812-15.938-13.042c-2.648-0.654-6.479-1.06-11.488-1.192c-5-0.155-9.161-0.221-12.461-0.221h-27.785
		l-18.122,78.402h19.28c7.092,0,12.648-0.787,16.666-2.34c4.018-1.562,7.775-3.747,11.269-6.572
		c2.644-2.171,5.745-6.073,9.287-11.683c3.549-5.615,6.07-10.399,7.594-14.358h10.606l-19.381,83.768h-10.617v-5.226
		c0-4.254-0.452-8.62-1.347-13.103c-0.905-4.467-1.965-7.61-3.201-9.406c-2.455-3.576-5.716-5.968-9.778-7.146
		c-4.072-1.17-8.701-1.76-13.9-1.76h-19.297l-12.914,55.896c-0.656,2.833-1.273,5.887-1.843,9.202
		c-0.563,3.289-0.839,5.662-0.839,7.063c0,6.048,1.981,9.844,5.938,11.4c3.962,1.556,11.273,2.329,21.93,2.329
		c13.587,0,23.498-0.591,29.729-1.761c6.229-1.175,10.898-3.002,14.011-5.452c5.661-4.718,12.449-11.938,20.373-21.656
		c7.925-9.715,13.312-16.884,16.136-21.505h10.331l-18.255,62.559H430.898l2.405-10.342c2.362-0.088,5.878-0.397,10.54-0.927
		c4.68-0.513,8.146-1.153,10.408-1.909c3.675-1.226,6.489-3.107,8.415-5.651c1.938-2.549,3.283-5.475,4.034-8.785l32.453-140.376
		c0.475-1.973,0.8-3.637,0.999-4.953c0.188-1.327,0.276-2.304,0.276-2.968c0-3.965-2.003-7.058-6.016-9.274
		c-4.006-2.216-10.54-3.981-19.601-5.306l2.411-10.333H653.784z"/>
	<path class="st0" d="M790.115,43.459c-1.318,16.671-8.613,30.265-21.869,40.805c-13.261,10.535-29.788,15.016-49.588,13.44
		c-13.74-1.082-24.501-5.548-32.271-13.379c-7.781-7.839-11.181-17.879-10.209-30.136c1.336-16.832,8.548-30.398,21.632-40.717
		s29.292-14.707,48.628-13.175c15.606,1.245,27.012,5.844,34.235,13.779C787.892,22.034,791.042,31.824,790.115,43.459
		 M747.105,70.11c2.726-5.857,4.895-12.246,6.5-19.135c1.596-6.889,2.666-13.677,3.196-20.346c0.529-6.66-0.233-11.856-2.285-15.572
		c-2.047-3.711-5.629-5.764-10.755-6.184c-5.121-0.406-9.855,1.192-14.204,4.793c-4.354,3.589-7.996,8.661-10.938,15.211
		c-2.537,5.419-4.574,11.873-6.113,19.358c-1.529,7.486-2.495,13.788-2.897,18.895c-0.606,7.604,0.209,13.095,2.438,16.467
		c2.23,3.377,5.794,5.253,10.679,5.646c5.358,0.433,10.104-1.245,14.231-5.022C741.079,80.459,744.462,75.75,747.105,70.11"/>
	<path class="st0" d="M93.589,346.789h7.348l12.565,68.151h-7.831l-3.087-17.89H65.646l-12.758,17.89h-8.402L93.589,346.789z
		 M101.323,390.086l-6.09-34.605l-24.747,34.605H101.323z"/>
	<path class="st0" d="M138.174,347.264h16.332c11.312,0,20.492,3.189,26.388,8.995c4.834,4.834,7.345,11.202,7.345,19.436
		c0,10.33-3.769,19.425-10.625,26.394c-8.125,8.107-20.307,12.853-34.708,12.853h-22.912L138.174,347.264z M154.022,354.315h-10.054
		l-14.403,53.557h14.304c11.315,0,21.075-3.77,27.942-10.628c5.408-5.408,8.507-12.754,8.507-21.075
		c0-6.368-2.033-11.4-5.704-14.982C170.167,356.745,163.015,354.315,154.022,354.315"/>
	<polygon class="st0" points="194.93,347.264 203.048,347.264 211.361,405.466 250.9,347.264 259.597,347.264 212.426,415.427 
		205.564,415.427 	"/>
	<polygon class="st0" points="267.93,347.264 275.567,347.264 257.393,414.94 249.758,414.94 	"/>
	<path class="st0" d="M270.642,403.044l5.797-4.548c5.703,6.964,12.372,10.552,22.33,10.552c9.762,0,17.109-5.32,17.109-12.671
		c0-5.221-3.474-8.311-13.923-12.372c-12.463-4.933-18.556-9.281-18.556-18.089c0-4.624,1.742-8.973,5.215-12.361
		c4.547-4.547,11.415-7.251,19.728-7.251c10.534,0,18.848,4.249,23.972,10.237l-5.604,5.026c-4.934-5.408-11.12-8.399-19.049-8.399
		c-10.143,0-16.24,5.706-16.24,11.887c0,5.508,4.356,8.311,14.982,12.461c11.6,4.459,17.502,9.188,17.502,17.891
		c0,5.121-2.128,9.579-5.51,13.056c-4.738,4.741-11.892,7.438-20.106,7.438C285.82,415.9,276.439,411.067,270.642,403.044"/>
	<path class="st0" d="M402.412,375.396c0,10.927-4.74,21.649-12.278,29.298c-7.055,6.964-16.527,11.494-27.161,11.494
		c-17.496,0-29.683-12.857-29.683-29.38c0-10.926,4.74-21.565,12.377-29.191c6.964-6.964,16.437-11.512,27.07-11.512
		C390.23,346.104,402.412,358.963,402.412,375.396 M384.144,400.24c6.473-6.468,10.25-15.562,10.25-24.557
		c0-12.753-8.608-22.516-22.145-22.516c-8.214,0-15.369,3.477-20.683,8.896c-6.481,6.368-10.25,15.451-10.25,24.545
		c0,12.77,8.608,22.526,22.137,22.526C371.667,409.136,378.829,405.554,384.144,400.24"/>
	<path class="st0" d="M437.233,388.64h-1.645h-16.633l-7.058,26.29h-7.632l18.172-67.666h24.364c8.508,0,14.883,2.13,19.037,6.186
		c2.902,3.008,4.448,7.069,4.448,11.705c0,5.894-2.218,10.816-5.993,14.689c-4.442,4.453-11.6,6.964-18.751,8.124l13.922,26.962
		h-8.801L437.233,388.64z M439.165,381.775c8.896,0,15.462-2.406,19.236-6.181c2.61-2.714,4.057-5.898,4.057-9.866
		c0-2.903-0.967-5.496-2.799-7.351c-2.609-2.594-6.864-4.062-13.244-4.062h-18.172l-7.449,27.46H439.165z"/>
	<path class="st0" d="M467.601,403.044l5.794-4.548c5.711,6.964,12.378,10.552,22.333,10.552c9.763,0,17.112-5.32,17.112-12.671
		c0-5.221-3.477-8.311-13.922-12.372c-12.472-4.933-18.554-9.281-18.554-18.089c0-4.624,1.738-8.973,5.21-12.361
		c4.547-4.547,11.412-7.251,19.729-7.251c10.534,0,18.851,4.249,23.977,10.237l-5.612,5.026c-4.928-5.408-11.113-8.399-19.044-8.399
		c-10.153,0-16.24,5.706-16.24,11.887c0,5.508,4.354,8.311,14.982,12.461c11.6,4.459,17.504,9.188,17.504,17.891
		c0,5.121-2.13,9.579-5.513,13.056c-4.74,4.741-11.892,7.438-20.114,7.438C482.782,415.9,473.395,411.067,467.601,403.044"/>
</g>
</svg>
